<?xml version="1.0" encoding="UTF-8" standalone="no"?>
<!DOCTYPE svg PUBLIC "-//W3C//DTD SVG 1.1//EN"
 "http://www.w3.org/Graphics/SVG/1.1/DTD/svg11.dtd">
<!-- Generated by graphviz version 2.36.0 (20140111.2315)
 -->
<!-- Title: %3 Pages: 1 -->
<svg width="117pt" height="260pt"
 viewBox="0.00 0.00 117.00 260.00" xmlns="http://www.w3.org/2000/svg" xmlns:xlink="http://www.w3.org/1999/xlink">
<g id="graph0" class="graph" transform="scale(1 1) rotate(0) translate(4 256)">
<title>%3</title>
<polygon fill="white" stroke="none" points="-4,4 -4,-256 113,-256 113,4 -4,4"/>
<!-- n1 -->
<g id="node1" class="node"><title>n1</title>
<ellipse fill="none" stroke="black" cx="54" cy="-234" rx="27" ry="18"/>
<text text-anchor="middle" x="54" y="-229.8" font-family="Times,serif" font-size="14.00">n1</text>
</g>
<!-- n2 -->
<g id="node2" class="node"><title>n2</title>
<ellipse fill="none" stroke="black" cx="82" cy="-162" rx="27" ry="18"/>
<text text-anchor="middle" x="82" y="-157.8" font-family="Times,serif" font-size="14.00">n2</text>
</g>
<!-- n1&#45;&gt;n2 -->
<g id="edge1" class="edge"><title>n1&#45;&gt;n2</title>
<path fill="none" stroke="black" d="M60.6356,-216.411C63.9134,-208.216 67.9442,-198.14 71.6181,-188.955"/>
<polygon fill="black" stroke="black" points="74.9477,-190.055 75.412,-179.47 68.4484,-187.455 74.9477,-190.055"/>
</g>
<!-- n3 -->
<g id="node3" class="node"><title>n3</title>
<ellipse fill="none" stroke="black" cx="27" cy="-90" rx="27" ry="18"/>
<text text-anchor="middle" x="27" y="-85.8" font-family="Times,serif" font-size="14.00">n3</text>
</g>
<!-- n1&#45;&gt;n3 -->
<g id="edge2" class="edge"><title>n1&#45;&gt;n3</title>
<path fill="none" stroke="black" d="M50.7432,-215.871C46.1415,-191.67 37.688,-147.211 32.2086,-118.393"/>
<polygon fill="black" stroke="black" points="35.5748,-117.359 30.2684,-108.189 28.698,-118.667 35.5748,-117.359"/>
</g>
<!-- n2&#45;&gt;n3 -->
<g id="edge3" class="edge"><title>n2&#45;&gt;n3</title>
<path fill="none" stroke="black" d="M70.0658,-145.811C62.7864,-136.546 53.3374,-124.52 45.1456,-114.094"/>
<polygon fill="black" stroke="black" points="47.8413,-111.86 38.9109,-106.159 42.337,-116.185 47.8413,-111.86"/>
</g>
<!-- n3&#45;&gt;n3 -->
<g id="edge4" class="edge"><title>n3&#45;&gt;n3</title>
<path fill="none" stroke="black" d="M46.895,-102.432C59.688,-105.675 72,-101.531 72,-90 72,-81.6218 65.5006,-77.1433 57.0395,-76.5644"/>
<polygon fill="black" stroke="black" points="56.5019,-73.1004 46.895,-77.5679 57.191,-80.0665 56.5019,-73.1004"/>
</g>
<!-- n4 -->
<g id="node4" class="node"><title>n4</title>
<ellipse fill="none" stroke="black" cx="63" cy="-18" rx="27" ry="18"/>
<text text-anchor="middle" x="63" y="-13.8" font-family="Times,serif" font-size="14.00">n4</text>
</g>
<!-- n3&#45;&gt;n4 -->
<g id="edge5" class="edge"><title>n3&#45;&gt;n4</title>
<path fill="none" stroke="black" d="M35.3496,-72.7646C39.7115,-64.2831 45.1469,-53.7144 50.0413,-44.1974"/>
<polygon fill="black" stroke="black" points="53.2346,-45.6409 54.6957,-35.1473 47.0096,-42.4395 53.2346,-45.6409"/>
</g>
<!-- n4&#45;&gt;n2 -->
<g id="edge6" class="edge"><title>n4&#45;&gt;n2</title>
<path fill="none" stroke="black" d="M70.242,-35.8294C74.2628,-46.0751 78.8712,-59.5478 81,-72 84.4933,-92.4339 84.5999,-115.893 83.91,-133.595"/>
<polygon fill="black" stroke="black" points="80.4039,-133.632 83.4007,-143.794 87.3952,-133.981 80.4039,-133.632"/>
</g>
</g>
</svg>
